<?xml version="1.0" encoding="utf-8"?><!DOCTYPE svg  PUBLIC '-//W3C//DTD SVG 1.1//EN'  'http://www.w3.org/Graphics/SVG/1.1/DTD/svg11.dtd'><svg xmlns="http://www.w3.org/2000/svg" xmlns:xlink="http://www.w3.org/1999/xlink"><symbol viewBox="0 0 256 256" id="fb" xmlns="http://www.w3.org/2000/svg"><path d="M147.58 254.036v-114.81h38.598l5.938-44.95H147.58V65.65c0-12.973 3.622-21.82 22.239-21.82h23.574V3.747a310.352 310.352 0 00-34.559-1.781c-34.203 0-57.63 20.782-57.63 59.231v33.075H62.608v44.95h38.598v114.813h46.375z"/></symbol><symbol viewBox="0 0 448 512" id="inst" xmlns="http://www.w3.org/2000/svg"><path d="M224.1 141c-63.6 0-114.9 51.3-114.9 114.9s51.3 114.9 114.9 114.9S339 319.5 339 255.9 287.7 141 224.1 141zm0 189.6c-41.1 0-74.7-33.5-74.7-74.7s33.5-74.7 74.7-74.7 74.7 33.5 74.7 74.7-33.6 74.7-74.7 74.7zm146.4-194.3c0 14.9-12 26.8-26.8 26.8-14.9 0-26.8-12-26.8-26.8s12-26.8 26.8-26.8 26.8 12 26.8 26.8zm76.1 27.2c-1.7-35.9-9.9-67.7-36.2-93.9-26.2-26.2-58-34.4-93.9-36.2-37-2.1-147.9-2.1-184.9 0-35.8 1.7-67.6 9.9-93.9 36.1s-34.4 58-36.2 93.9c-2.1 37-2.1 147.9 0 184.9 1.7 35.9 9.9 67.7 36.2 93.9s58 34.4 93.9 36.2c37 2.1 147.9 2.1 184.9 0 35.9-1.7 67.7-9.9 93.9-36.2 26.2-26.2 34.4-58 36.2-93.9 2.1-37 2.1-147.8 0-184.8zM398.8 388c-7.8 19.6-22.9 34.7-42.6 42.6-29.5 11.7-99.5 9-132.1 9s-102.7 2.6-132.1-9c-19.6-7.8-34.7-22.9-42.6-42.6-11.7-29.5-9-99.5-9-132.1s-2.6-102.7 9-132.1c7.8-19.6 22.9-34.7 42.6-42.6 29.5-11.7 99.5-9 132.1-9s102.7-2.6 132.1 9c19.6 7.8 34.7 22.9 42.6 42.6 11.7 29.5 9 99.5 9 132.1s2.7 102.7-9 132.1z"/></symbol><symbol viewBox="0 0 50 50" id="telg" xmlns="http://www.w3.org/2000/svg"><path d="M46.137 6.552c-.75-.636-1.928-.727-3.146-.238h-.002c-1.281.514-36.261 15.518-37.685 16.131-.259.09-2.521.934-2.288 2.814.208 1.695 2.026 2.397 2.248 2.478l8.893 3.045c.59 1.964 2.765 9.21 3.246 10.758.3.965.789 2.233 1.646 2.494.752.29 1.5.025 1.984-.355l5.437-5.043 8.777 6.845.209.125c.596.264 1.167.396 1.712.396.421 0 .825-.079 1.211-.237 1.315-.54 1.841-1.793 1.896-1.935l6.556-34.077c.4-1.82-.156-2.746-.694-3.201zM22 32l-3 8-3-10 23-17-17 19z"/></symbol><symbol viewBox="0 0 256 256" id="tiktok" xmlns="http://www.w3.org/2000/svg"><path d="M238.615 65.08c-14.408 0-27.703-4.773-38.377-12.825-12.242-9.231-21.04-22.77-24.145-38.376a63.911 63.911 0 01-1.227-11.915h-41.158v112.463l-.05 61.601c0 16.469-10.725 30.434-25.591 35.343a37.418 37.418 0 01-13.828 1.835 37.095 37.095 0 01-17.04-5.226c-10.735-6.42-18.012-18.068-18.21-31.392-.312-20.824 16.524-37.8 37.331-37.8 4.109 0 8.052.67 11.747 1.888V98.891a80.984 80.984 0 00-11.87-.876c-22.776 0-44.076 9.466-59.304 26.523-11.509 12.89-18.413 29.333-19.477 46.578-1.395 22.652 6.893 44.185 22.97 60.074a80.098 80.098 0 007.435 6.495c13.783 10.601 30.633 16.351 48.379 16.351 4.008 0 7.974-.297 11.87-.874 16.577-2.456 31.873-10.044 43.944-21.978 14.833-14.66 23.028-34.122 23.115-54.837l-.213-91.99a103.899 103.899 0 0023.115 13.481c12.915 5.448 26.608 8.21 40.699 8.207V65.072c.01.008-.107.008-.115.008z"/></symbol><symbol viewBox="0 0 32 32" id="upload" xmlns="http://www.w3.org/2000/svg"><path d="M31 22a1 1 0 00-1 1v7H2v-7a1 1 0 00-2 0v8a1 1 0 001 1h30a1 1 0 001-1v-8a1 1 0 00-1-1z"/><path d="M15.27 23.707c.389.385 1.04.389 1.429 0l6.999-6.9a.993.993 0 000-1.414 1.016 1.016 0 00-1.428 0l-5.275 5.2V1c0-.552-.452-1-1.01-1s-1.01.448-1.01 1v19.593l-5.275-5.2a1.016 1.016 0 00-1.428 0 .992.992 0 000 1.414l6.998 6.9z"/></symbol><symbol viewBox="0 0 256 256" id="vk" xmlns="http://www.w3.org/2000/svg"><path d="M248.252 63.285c1.754-5.843 0-10.136-8.338-10.136h-27.576c-7.014 0-10.246 3.708-11.996 7.8 0 0-14.027 34.18-33.893 56.386-6.425 6.427-9.346 8.475-12.855 8.475-1.75 0-4.288-2.048-4.288-7.887V63.285c0-7.01-2.036-10.136-7.879-10.136h-43.34c-4.38 0-7.018 3.254-7.018 6.34 0 6.647 9.934 8.182 10.96 26.88v40.609c0 8.903-1.608 10.522-5.115 10.522-9.346 0-32.089-34.337-45.577-73.627-2.644-7.638-5.294-10.722-12.34-10.722H11.42c-7.882-.002-9.456 3.706-9.456 7.795 0 7.305 9.346 43.533 43.53 91.446 22.787 32.72 54.893 50.46 84.11 50.46 17.528 0 19.699-3.941 19.699-10.728v-24.728c0-7.881 1.66-9.453 7.212-9.453 4.09 0 11.1 2.042 27.462 17.819 18.698 18.698 21.779 27.087 32.299 27.087h27.576c7.876 0 11.817-3.941 9.545-11.713-2.49-7.75-11.416-18.993-23.26-32.316-6.428-7.596-16.071-15.777-18.992-19.869-4.092-5.257-2.922-7.593 0-12.27.002.003 33.604-47.328 37.107-63.396"/></symbol><symbol viewBox="0 0 60 42.46" id="ytube" xmlns="http://www.w3.org/2000/svg"><g><path d="M47.54 0H12.46A12.46 12.46 0 000 12.46V30a12.46 12.46 0 0012.46 12.46h35.08A12.46 12.46 0 0060 30V12.46A12.46 12.46 0 0047.54 0zm-8.43 22.08L22.7 29.91a.66.66 0 01-.94-.59V13.17a.66.66 0 011-.59l16.37 8.32a.66.66 0 01-.02 1.18z"/></g></symbol><symbol viewBox="0 0 50 50" id="yzen" xmlns="http://www.w3.org/2000/svg"><path d="M46.894 23.986h.011a.998.998 0 00.996-1.091C46.897 11.852 38.154 3.106 27.11 2.1a1 1 0 00-1.091 1.008c.174 14.676 2.11 20.673 20.875 20.878zm0 2.028c-18.765.205-20.7 6.202-20.874 20.878a1 1 0 001.091 1.008c11.044-1.006 19.787-9.751 20.79-20.795a.999.999 0 00-.262-.769 1.055 1.055 0 00-.745-.322zM22.823 2.105C11.814 3.14 3.099 11.884 2.1 22.897a.999.999 0 00.996 1.09h.012c18.703-.215 20.634-6.209 20.81-20.875a1.003 1.003 0 00-1.095-1.007zM3.107 26.013c-.311-.035-.555.113-.746.321a1.003 1.003 0 00-.262.769c.999 11.013 9.715 19.757 20.724 20.792a1.002 1.002 0 001.094-1.008c-.176-14.665-2.106-20.659-20.81-20.874z"/></symbol></svg>